<?xml version="1.0" standalone="no"?>
<!DOCTYPE svg PUBLIC "-//W3C//DTD SVG 20010904//EN"
 "http://www.w3.org/TR/2001/REC-SVG-20010904/DTD/svg10.dtd">
<svg version="1.0" xmlns="http://www.w3.org/2000/svg"
 width="512.000000pt" height="512.000000pt" viewBox="0 0 512.000000 512.000000"
 preserveAspectRatio="xMidYMid meet">
<metadata>
Created by potrace 1.11, written by Peter Selinger 2001-2013
</metadata>
<g transform="translate(0.000000,512.000000) scale(0.100000,-0.100000)"
fill="#000000" stroke="none">
<path d="M340 4429 c-61 -12 -159 -63 -203 -105 -50 -49 -96 -124 -117 -192
-18 -57 -20 -199 -6 -377 3 -33 8 -112 11 -175 3 -63 7 -144 10 -180 5 -73 12
-175 20 -330 4 -58 8 -134 10 -170 2 -36 7 -112 10 -170 4 -58 8 -130 10 -160
2 -30 7 -109 10 -175 4 -66 8 -145 10 -175 2 -30 6 -102 9 -160 4 -58 8 -134
11 -170 2 -36 7 -117 10 -180 13 -236 18 -271 46 -349 54 -147 174 -260 334
-312 57 -18 60 -19 163 -21 89 -1 92 -2 93 -25 1 -13 2 -26 3 -30 1 -5 6 -24
10 -43 11 -46 65 -129 106 -163 77 -65 159 -85 338 -81 120 2 163 12 232 55
82 50 131 122 153 224 l14 60 934 1 935 0 11 -56 c15 -79 40 -127 94 -182 84
-84 158 -106 352 -102 136 3 194 18 261 70 76 58 136 165 136 244 0 25 2 26
75 27 126 3 198 19 277 62 107 59 187 150 235 266 28 65 35 121 48 366 4 74 9
152 10 174 1 22 6 94 9 160 4 66 9 145 11 175 9 147 21 347 30 510 8 141 12
218 20 335 13 211 22 367 30 515 3 63 8 140 10 170 14 157 13 307 -2 365 -8
33 -21 67 -28 75 -7 8 -16 25 -19 37 -9 28 -116 128 -164 152 -106 54 38 51
-2326 50 -1207 -1 -2201 -5 -2226 -10z"/>
</g>
</svg>
